<svg xmlns="http://www.w3.org/2000/svg" viewBox="0 -7.29 374.623 131.675">
  <g fill="#c12f2f">
    <path d="M92.162 48.014V14.667c0-10.004-18.103-11.434-18.103-2.382-.476 13.815-.476 22.39-.476 26.678 0 4.287-.953 7.622 1.906 11.91 3.81 5.716 14.768 3.81 16.673-2.859zM30.231 27.53c0-4.764.477-12.863.477-24.773-1.43-14.292-20.009-14.292-19.056 6.193v24.296c1.905-.953 3.335-1.429 5.24-1.905a89.097 89.097 0 0013.34-3.812zM51.192 17.049V6.569c0-11.91-15.72-13.34-17.15-1.43-.476 9.528-.476 16.674-.476 20.961 4.764-1.905 9.051-4.287 12.386-6.193 1.906-1.429 3.811-2.382 5.24-2.858zM54.05 36.105c-1.428 14.768 15.722 11.91 16.198 4.763.953-8.575.477-20.96.477-30.012.952-12.387-14.292-13.34-16.198-3.811v9.527c.477 0 1.43.477 2.382.953 1.43 1.43 2.382 3.335 2.382 5.717 0 5.24-2.382 9.051-5.24 12.863z"/>
    <path d="M13.557 86.126c7.146 5.717 10.957 15.72 11.91 30.965h48.116c-1.43-11.433-.476-19.055 1.43-22.39 12.862-10.004 18.578-23.82 17.15-40.97-5.241 5.24-15.245 5.24-20.01-1.43-.952-1.428-1.428-2.857-1.428-4.763-7.623 5.24-19.533 2.382-20.009-8.575a85.826 85.826 0 01-11.91 8.575c9.052 5.717 14.768 11.91 17.15 18.58 2.382 7.145.953 14.768-5.24 22.39-.476.476-1.43.953-2.382 0-.476-.477-.953-1.43 0-1.906 5.24-7.146 6.67-13.339 4.764-19.532-2.382-6.193-8.575-12.386-18.58-18.103l-2.381-1.429 2.382-1.43C42.14 41.822 47.38 38.01 51.192 34.2c2.859-2.858 5.24-6.67 4.764-10.957 0-2.382-1.429-4.288-3.81-3.335-4.288 1.43-10.005 6.67-17.15 9.052-9.052 3.81-18.58 5.716-27.632 9.051-2.858 1.43-6.193 4.288-7.146 9.052-1.429 11.433 4.288 31.918 13.34 39.064z"/>
  </g>
  <path fill="#c12f2f"
        d="M130.335 45.867L117 9h15.016l9.861 27.118L151.627 9h15.015l-13.335 36.867h-22.972zM117 87.441l13.335-36.867h22.972l13.335 36.867h-15.016l-9.749-27.118-9.861 27.118H117zm58.607-32.16V9h14.12v46.28h-14.12zm0 32.16V59.987h14.12V87.44h-14.12zm18.826 0v-14.12h19.61v14.12h-19.61zm0-32.16V41.16h13.335v14.12h-13.335zm0-32.162V9h19.61v14.12h-19.61zm47.4 36.868v-14.12h8.853l2.13-2.129v-18.49l-2.13-2.129h-8.852V9h14.68l10.42 10.421v30.144l-10.42 10.422h-14.68zM223.009 87.44V64.693h14.12v22.748h-14.12zm0-27.454V9h14.12v50.987h-14.12zm50.65 27.454l6.388-31.376h23.98l-4.818-23.98-3.81 19.273h-14.456L289.46 9h19.498l12.326 61.184h-29.695l-3.474 17.257h-14.456zm36.756 0l-2.578-12.55h14.456l2.465 12.55h-14.343zm39.893-25.55V39.145l10.197-12.999V9h14.12v22.076zm-18.826 25.55V9h14.12v78.441h-14.12zm29.023 0V61.668l-2.017-2.466 8.965-11.43 7.171 8.965v30.704h-14.12z"
  />
  <path fill="#3d633d"
        d="M127.532 115.884v-3.4h1.942l.513-.512v-2.752l-1.08-1.079h-1.375v-3.399h1.376l1.079-1.079v-2.751l-.513-.513h-1.942V97h3.345l2.509 2.509v5.557l-1.376 1.376 1.376 1.376v5.557l-2.509 2.509h-3.345zm-4.532 0v-6.61h3.399v6.61H123zm0-7.743V97h3.399v11.141H123zm21.053 7.743l1.537-7.554h5.773l-1.16-5.773-.917 4.64h-3.48L147.856 97h4.694l2.968 14.73h-7.15l-.836 4.154h-3.48zm8.848 0l-.62-3.022h3.48l.593 3.022H152.9zm17.707 0v-14.352h3.4v14.352h-3.4zm-3.588-15.485V97h10.575v3.399H167.02zm25.37 15.485v-14.352h3.398v14.352h-3.399zm-3.589-15.485V97h10.575v3.399h-10.575zm21.781 10.953V97h3.4v14.352h-3.4zm0 4.532v-3.4h3.4v3.4h-3.4zm4.532 0v-3.4h4.155v3.4h-4.155zm15.36-7.743V97h3.4v11.141h-3.4zm0 7.743v-6.61h3.4v6.61h-3.4zm4.533 0v-3.4h4.72v3.4h-4.72zm0-7.743v-3.399h3.21v3.4h-3.21zm0-7.742V97h4.72v3.399h-4.72zm21.97 15.485v-3.4h.998l.512-.512v-3.83h-1.7v-3.4h5.1v8.633l-2.51 2.509h-2.4zm-3.535 0l-2.508-2.51v-4.1h3.399v2.698l.512.513h.998v3.399h-2.4zm-2.508-7.743V99.51L253.442 97h2.401v3.399h-.998l-.512.513v7.23h-3.4zm7.553-5.098v-2.131l-.512-.513h-.999V97h2.401l2.51 2.509v3.534h-3.4zm22.293 12.84l-1.834-6.986h-1.322v-3.4h2.131l.513-.512v-4.073l-.513-.513h-2.13V97h3.533l2.509 2.509v6.879l-1.457 1.484 2.077 8.012h-3.507zm-7.688 0v-5.853h3.4v5.854h-3.4zm0-6.986V97h3.4v11.897h-3.4zm28.282 6.987v-3.4h1.08l.512-.512v-11.06l-.513-.513h-1.079V97h2.482l2.51 2.509v13.866l-2.51 2.509h-2.482zm-3.641 0l-2.51-2.51V99.51l2.51-2.509h2.481v3.399h-1.079l-.512.513v11.06l.512.513h1.08v3.399h-2.482zm25.88 0v-3.4h.999l.513-.512V97h3.399v16.375l-2.51 2.509h-2.4zm-3.533 0l-2.509-2.51V97h3.4v14.972l.512.513h.998v3.399h-2.401zm27.041 0L339.73 97h3.668l3.94 10.09V97h3.398v18.884h-3.615zm-7.337 0v-15.647l3.399 8.66v6.987h-3.4zm26.69 0v-3.4h2.51l.512-.512v-11.06l-.513-.513h-2.509V97h3.912l2.509 2.509v13.866l-2.51 2.509h-3.91zm-4.532 0V97h3.4v18.884h-3.4z"
  />
</svg>